<svg width="395" height="284" viewBox="0 0 395 284" fill="none" xmlns="http://www.w3.org/2000/svg">
<path d="M65.2971 32.7051C61.905 29.3131 56.2516 28.1824 48.0541 28.7477L21.2004 31.0091C7.06679 32.1398 0 38.0759 0 48.252V103.373C0 114.68 7.63213 121.181 21.7657 122.312L48.3368 124.573C49.4675 124.573 50.5982 124.856 51.7289 124.856C57.665 124.856 62.1877 123.443 65.2971 120.616C68.6892 117.507 70.3852 112.701 70.3852 106.2V88.1087C70.3852 86.6954 69.2545 85.5647 67.8411 85.5647L46.0754 85.282C45.5101 85.282 44.6621 85.5647 44.0967 86.13C43.5314 86.6954 43.2487 87.2607 43.2487 88.1087V103.938C43.2487 104.221 43.2487 104.221 42.9661 104.504C42.9661 104.504 42.6834 104.786 42.4007 104.786L27.7018 103.938C27.4191 103.938 27.1365 103.656 27.1365 103.373V50.7961C27.1365 50.5134 27.4191 50.2307 27.7018 50.2307L42.4007 49.3827C42.6834 49.3827 42.6834 49.3827 42.9661 49.6654C42.9661 49.6654 43.2487 49.9481 43.2487 50.2307V61.5376C43.2487 62.3856 43.5314 62.951 44.0967 63.5163C44.6621 64.0816 45.2274 64.3643 46.0754 64.3643L67.8411 63.799C69.2545 63.799 70.3852 62.6683 70.3852 61.2549V48.252C70.3852 40.6199 68.6892 35.8145 65.2971 32.7051Z" fill="#9847FF"/>
<path d="M138.792 21.3984L83.388 25.9212C81.9747 25.9212 80.844 27.3345 80.844 28.4652V124.574C80.844 125.987 81.9747 127.118 83.388 127.118L138.792 131.64H139.074C139.64 131.64 140.488 131.358 140.77 131.075C141.336 130.51 141.618 129.944 141.618 129.096V111.571C141.618 110.157 140.488 109.027 139.074 109.027L108.828 107.613C108.546 107.613 108.263 107.331 108.263 107.048V88.6743C108.263 88.3916 108.263 88.3916 108.546 88.1089C108.546 88.1089 108.828 87.8262 109.111 87.8262L130.029 88.1089C130.594 88.1089 131.442 87.8262 132.008 87.2609C132.573 86.6955 132.856 86.1302 132.856 85.2822V68.3219C132.856 67.4739 132.573 66.9086 132.008 66.3432C131.442 65.7779 130.877 65.4952 130.029 65.4952L108.828 66.0605C108.546 66.0605 108.546 66.0605 108.263 65.7779C108.263 65.7779 107.98 65.4952 107.98 65.2125V46.5562C107.98 46.2735 108.263 45.9909 108.546 45.9909L138.792 44.5775C140.205 44.5775 141.336 43.4468 141.336 42.0335V24.2252C141.336 23.3771 141.053 22.8118 140.488 22.2465C140.205 21.6811 139.357 21.3984 138.792 21.3984Z" fill="#9847FF"/>
<path d="M174.691 133.901C175.256 133.336 175.539 132.77 175.539 131.922V90.6524C175.539 87.2604 175.539 82.4549 175.256 75.3881C175.256 74.8228 175.539 74.8228 175.822 74.8228C176.104 74.8228 176.387 74.8228 176.387 75.3881C178.366 84.4336 180.345 91.5004 182.323 96.8712C186.846 109.309 191.086 122.312 195.609 135.032C195.891 136.163 196.739 136.728 197.87 136.728L227.268 138.989H227.551C228.116 138.989 228.964 138.707 229.247 138.424C229.812 137.859 230.095 137.293 230.095 136.445V16.8752C230.095 16.0271 229.812 15.4618 229.247 14.8965C228.681 14.3311 227.833 14.0484 227.268 14.3311L209.177 15.7445C207.764 15.7445 206.633 17.1578 206.633 18.2885V71.7134C206.633 76.2362 206.916 81.8896 207.198 88.6737C207.198 89.2391 206.916 89.2391 206.633 89.2391C206.35 89.2391 206.068 89.2391 205.785 88.6737C203.524 78.7802 201.262 70.5827 199.001 63.7986C194.195 49.0997 189.39 34.1181 184.585 19.7019C184.302 18.5712 183.171 17.7232 181.758 18.0058L154.621 20.2672C153.208 20.2672 152.077 21.6806 152.077 22.8113V130.509C152.077 131.922 153.208 133.053 154.621 133.053L172.43 134.466C173.278 134.466 174.126 134.466 174.691 133.901Z" fill="#9847FF"/>
<path d="M316.592 6.98242L298.784 8.39578C297.37 8.39578 296.24 9.80914 296.24 10.9398V71.1488C296.24 76.2369 296.522 82.4557 296.805 90.0878C296.805 90.6532 296.522 90.6532 296.24 90.6532C295.957 90.6532 295.674 90.6532 295.674 90.0878C293.413 79.0636 291.152 69.7355 288.89 62.1034C284.085 45.1431 278.997 28.4655 274.191 12.3532C273.909 11.2225 272.778 10.3745 271.365 10.3745L244.228 12.6359C242.815 12.6359 241.684 14.0492 241.684 15.1799V137.294C241.684 138.707 242.815 139.838 244.228 139.838L262.036 141.251C262.884 141.251 263.45 140.969 264.015 140.686C264.58 140.121 264.863 139.555 264.863 138.707V92.3492C264.863 88.3918 264.863 83.021 264.58 75.1062C264.58 74.5409 264.863 74.5409 265.146 74.5409C265.428 74.5409 265.711 74.5409 265.711 75.1062C267.69 85.2824 269.669 93.1972 271.647 99.1333C276.17 113.267 280.41 127.683 284.933 142.099C285.215 143.23 286.063 143.795 287.194 144.078L316.592 146.339H316.875C317.44 146.339 318.288 146.057 318.571 145.774C319.136 145.209 319.419 144.643 319.419 143.795V9.80914C319.419 8.96112 319.136 8.39578 318.571 7.83044C318.005 7.26509 317.157 6.98242 316.592 6.98242Z" fill="#9847FF"/>
<path d="M393.761 30.7265C393.761 30.4438 394.044 30.1611 394.044 29.8784V3.58999C394.044 2.74198 393.761 2.17664 393.196 1.61129C392.631 1.04595 391.783 0.763281 391.217 1.04595L331.856 5.85137C330.443 5.85137 329.312 7.26472 329.312 8.39541V32.4225C329.312 33.2705 329.595 33.8358 330.16 34.4012C330.726 34.9665 331.291 35.2492 332.139 35.2492L362.385 33.8358C362.668 33.8358 362.95 34.1185 362.95 34.1185C362.95 34.1185 363.233 34.4012 362.95 34.6839C351.926 64.0817 340.619 92.6315 329.312 119.768C329.312 120.051 329.03 120.333 329.03 120.899V145.208C329.03 146.622 330.16 147.752 331.574 147.752L390.935 152.558H391.217C391.783 152.558 392.631 152.275 392.913 151.993C393.479 151.427 393.761 150.862 393.761 150.014V124.291C393.761 122.877 392.631 121.747 391.217 121.747L360.406 119.768C360.124 119.768 359.841 119.485 359.841 119.485C359.841 119.485 359.558 119.203 359.841 118.92C371.148 90.6528 382.455 61.255 393.761 30.7265Z" fill="#9847FF"/>
<path d="M239.988 151.145L222.18 149.731C221.332 149.731 220.766 150.014 220.201 150.297C219.636 150.862 219.353 151.427 219.353 152.275V209.375C219.353 214.18 219.636 220.399 219.918 227.749C219.918 228.314 219.636 228.314 219.353 228.314C219.07 228.314 218.788 228.314 218.505 227.749C216.244 217.29 213.982 207.962 211.721 200.612C206.916 183.934 201.827 166.409 197.022 149.166C196.739 148.035 195.891 147.187 194.761 147.187L167.907 144.926C167.059 144.926 166.493 145.208 165.928 145.491C165.363 146.056 165.08 146.622 165.08 147.47V281.456C165.08 282.304 165.363 282.869 165.928 283.435C166.493 284 167.059 284 167.624 284H167.907L185.715 282.587C187.128 282.587 188.259 281.456 188.259 280.043V230.858C188.259 226.901 188.259 221.247 187.977 212.767C187.977 212.202 188.259 212.202 188.542 212.202C188.825 212.202 189.107 212.202 189.107 212.767C191.086 223.226 193.065 231.423 195.043 237.359C199.283 251.493 203.806 265.344 208.329 278.912C208.612 280.043 209.742 280.891 211.156 280.608L240.553 278.064C241.967 278.064 243.097 276.933 243.097 275.52V153.689C242.532 152.275 241.401 151.145 239.988 151.145Z" fill="#9847FF"/>
<path d="M312.917 157.364L257.514 152.558C256.666 152.558 256.1 152.841 255.535 153.123C254.97 153.689 254.687 154.254 254.687 155.102V273.824C254.687 274.672 254.97 275.238 255.535 275.803C256.1 276.368 256.666 276.368 257.231 276.368H257.514L312.917 271.563C314.331 271.563 315.461 270.432 315.461 269.019V250.645C315.461 249.797 315.179 249.232 314.613 248.666C314.048 248.101 313.483 247.818 312.635 247.818L282.671 249.514C282.389 249.514 282.389 249.514 282.106 249.232C282.106 249.232 281.823 248.949 281.823 248.666V227.183C281.823 226.901 282.106 226.618 282.389 226.618L303.307 226.335C304.72 226.335 305.851 225.205 305.851 223.791V205.418C305.851 204.004 304.72 202.874 303.307 202.874L282.389 202.591C282.106 202.591 281.823 202.308 281.823 202.026V180.26C281.823 179.977 281.823 179.977 282.106 179.695C282.106 179.695 282.389 179.412 282.671 179.412L312.635 181.108C313.483 181.108 314.048 180.825 314.613 180.26C315.179 179.695 315.461 179.129 315.461 178.281V159.908C315.461 158.494 314.331 157.364 312.917 157.364Z" fill="#9847FF"/>
<path d="M390.935 164.43C379.628 163.582 369.169 162.452 359.275 161.604C349.099 160.756 338.64 159.625 327.616 158.777C326.768 158.777 326.203 159.06 325.638 159.342C325.072 159.908 324.79 160.473 324.79 161.321V179.412C324.79 180.825 325.92 181.956 327.334 181.956C330.443 182.239 333.552 182.239 336.379 182.521C339.206 182.804 342.032 182.804 345.425 183.087C345.707 183.087 345.99 183.369 345.99 183.652V265.627C345.99 266.475 346.273 267.04 346.838 267.605C347.403 268.171 347.969 268.171 348.534 268.171H348.817L370.865 266.192C372.278 266.192 373.409 265.061 373.409 263.648V185.348C373.409 185.065 373.409 185.065 373.692 184.783C373.692 184.783 373.974 184.5 374.257 184.5C377.366 184.783 380.193 184.783 382.737 185.065C385.281 185.348 388.108 185.348 391.217 185.631C392.065 185.631 392.631 185.348 393.196 184.783C393.761 184.217 394.044 183.652 394.044 182.804V166.974C393.196 165.844 392.348 164.713 390.935 164.43Z" fill="#9847FF"/>
</svg>
